<svg width="33" height="37" viewBox="0 0 33 37" fill="none" xmlns="http://www.w3.org/2000/svg">
<path d="M31.9525 26.8288C17.2451 42.35 5.34708 25.8344 5.34708 25.8344L18.4944 2.20168L31.9525 26.8288Z" fill="#865C9E"/>
<path d="M18.4944 31.4648C9.58808 31.0407 6.19521 23.4067 6.19521 23.4067L4.49878 25.9514C4.49878 25.9514 10.4363 34.0094 18.4944 34.4336C26.5524 34.8577 32.4899 26.7996 32.4899 26.7996L30.7935 23.8308C30.7935 23.8308 27.4006 31.8889 18.4944 31.4648Z" fill="#3B0259"/>
<path d="M9.01454 22.2429C9.15184 21.9668 10.5294 21.2742 10.5294 21.2742C10.5294 21.2742 10.8086 22.7906 10.6713 23.0667C10.534 23.3429 10.1206 23.4817 9.56831 23.2071C9.01606 22.9325 8.87724 22.519 9.01454 22.2429Z" fill="#3B0259"/>
<path d="M27.1992 22.2429C27.0619 21.9668 25.6843 21.2742 25.6843 21.2742C25.6843 21.2742 25.4052 22.7906 25.5425 23.0667C25.6798 23.3429 26.0932 23.4817 26.6454 23.2071C27.1977 22.9325 27.3365 22.519 27.1992 22.2429Z" fill="#3B0259"/>
<path d="M18.0807 27.5052C18.0786 27.1969 18.9954 25.9572 18.9954 25.9572C18.9954 25.9572 19.9288 27.1844 19.9309 27.4928C19.933 27.8012 19.6267 28.1116 19.0099 28.1158C18.3932 28.1199 18.0827 27.8136 18.0807 27.5052Z" fill="#3B0259"/>
<path d="M18.0807 7.14878C18.0786 6.84041 18.9954 5.60072 18.9954 5.60072C18.9954 5.60072 19.9288 6.82799 19.9309 7.13636C19.933 7.44473 19.6267 7.75517 19.0099 7.75931C18.3932 7.76345 18.0827 7.45715 18.0807 7.14878Z" fill="#3B0259"/>
<path d="M18.0807 19.8719C18.0786 19.5636 18.9954 18.3239 18.9954 18.3239C18.9954 18.3239 19.9288 19.5511 19.9309 19.8595C19.933 20.1679 19.6267 20.4783 19.0099 20.4825C18.3932 20.4866 18.0827 20.1803 18.0807 19.8719Z" fill="#3B0259"/>
<path d="M14.1038 13.761C14.2411 13.4849 15.6187 12.7923 15.6187 12.7923C15.6187 12.7923 15.8978 14.3087 15.7605 14.5848C15.6232 14.8609 15.2098 14.9997 14.6575 14.7251C14.1053 14.4505 13.9665 14.0371 14.1038 13.761Z" fill="#3B0259"/>
<path d="M22.9582 13.761C22.8209 13.4849 21.4434 12.7923 21.4434 12.7923C21.4434 12.7923 21.1642 14.3087 21.3015 14.5848C21.4388 14.8609 21.8522 14.9997 22.4045 14.7251C22.9567 14.4505 23.0955 14.0371 22.9582 13.761Z" fill="#3B0259"/>
</svg>
